<svg width="32" height="32" viewBox="0 0 32 32" fill="none" xmlns="http://www.w3.org/2000/svg">
<path d="M16.0273 0C17.0702 5.82143e-06 18.0446 0.191993 18.9502 0.576172C19.8649 0.969511 20.6655 1.50928 21.3516 2.19531C22.0376 2.8905 22.5728 3.69566 22.957 4.61035C23.2445 5.28564 23.4256 5.99556 23.5029 6.73926L20.418 7.57422C20.4179 6.75105 20.2169 6.00107 19.8145 5.32422C19.4211 4.65646 18.8904 4.12124 18.2227 3.71875C17.5641 3.32548 16.8323 3.12891 16.0273 3.12891C15.2042 3.12893 14.4542 3.32553 13.7773 3.71875C13.1096 4.12126 12.5734 4.65645 12.1709 5.32422C11.7777 6.00099 11.5811 6.75117 11.5811 7.57422C11.5811 8.47985 11.7876 9.30847 12.1992 10.0586C12.6107 10.8084 13.1182 11.4989 13.7217 12.1299C14.1333 12.5415 14.5318 12.9038 14.916 13.2148C15.1756 13.425 15.4313 13.6174 15.6787 13.7979L16.0254 13.3359L16.0273 13.3379C16.2469 13.0361 16.4806 12.739 16.7275 12.4463C16.9745 12.1536 17.2897 11.8284 17.6738 11.4717C18.4423 10.7033 19.3895 10.0078 20.5146 9.38574C21.6489 8.76381 22.9712 8.45312 24.4805 8.45312C25.8708 8.45318 27.1333 8.79185 28.2676 9.46875C29.411 10.1365 30.3166 11.0421 30.9844 12.1855C31.6613 13.3199 32 14.5822 32 15.9727C32 17.0245 31.8034 18.0127 31.4102 18.9365C31.026 19.8512 30.4906 20.6564 29.8047 21.3516C29.1187 22.0375 28.3179 22.5774 27.4033 22.9707C26.4978 23.3549 25.5232 23.5478 24.4805 23.5479C24.1441 23.5479 23.8171 23.5308 23.499 23.499C23.5299 23.8169 23.5469 24.144 23.5469 24.4805C23.5468 25.8709 23.2082 27.1333 22.5312 28.2676C21.8635 29.411 20.9579 30.3166 19.8145 30.9844C18.6801 31.6613 17.4178 32 16.0273 32C14.9754 32 13.9873 31.8034 13.0635 31.4102C12.1488 31.026 11.3436 30.4907 10.6484 29.8047C9.96244 29.1187 9.42264 28.318 9.0293 27.4033C8.73663 26.7134 8.55605 25.9834 8.48633 25.2139L11.5908 24.1367C11.5845 24.2499 11.5811 24.3646 11.5811 24.4805C11.5811 25.2853 11.7777 26.0173 12.1709 26.6758C12.5734 27.3436 13.1096 27.8742 13.7773 28.2676C14.4542 28.6699 15.2042 28.8711 16.0273 28.8711C16.8323 28.8711 17.5641 28.67 18.2227 28.2676C18.8904 27.8742 19.4211 27.3435 19.8145 26.6758C20.2169 26.0172 20.4179 25.2854 20.418 24.4805C20.418 23.8584 20.322 23.2725 20.1299 22.7236C19.9469 22.1749 19.6906 21.6621 19.3613 21.1865C19.0413 20.7111 18.6797 20.2725 18.2773 19.8701C17.8108 19.3762 17.358 18.9641 16.9189 18.6348C16.6906 18.4647 16.5008 18.319 16.3477 18.2002L15.9541 18.749C15.7277 19.0242 15.4877 19.3118 15.2314 19.6094C14.9571 19.9294 14.6553 20.2539 14.3262 20.583C13.8139 21.077 13.2189 21.5533 12.542 22.0107C11.8742 22.459 11.1235 22.8293 10.291 23.1221C9.46779 23.4056 8.56206 23.5479 7.57422 23.5479C6.16558 23.5478 4.8895 23.2091 3.74609 22.5322C2.60274 21.8554 1.69255 20.945 1.01562 19.8018C0.338667 18.6582 0 17.3815 0 15.9727C2.37723e-05 14.9298 0.191976 13.9554 0.576172 13.0498C0.969532 12.1351 1.50925 11.3345 2.19531 10.6484C2.89054 9.96238 3.69559 9.42717 4.61035 9.04297C5.53424 8.64963 6.52228 8.45316 7.57422 8.45312C7.89062 8.45312 8.19852 8.46894 8.49805 8.49902C8.46899 8.19913 8.45313 7.89092 8.45312 7.57422C8.45319 6.16565 8.79095 4.88945 9.46777 3.74609C10.1447 2.60262 11.0558 1.69258 12.1992 1.01562C13.3426 0.338774 14.6187 2.33397e-05 16.0273 0ZM7.57422 11.582C6.75104 11.5821 6.00108 11.7831 5.32422 12.1855C4.65643 12.5789 4.12126 13.1096 3.71875 13.7773C3.32541 14.436 3.12894 15.1677 3.12891 15.9727C3.12891 16.796 3.32538 17.5467 3.71875 18.2236C4.12124 18.8913 4.65653 19.4267 5.32422 19.8291C6.00104 20.2223 6.7511 20.4189 7.57422 20.4189C8.47988 20.4189 9.30845 20.2134 10.0586 19.8018C10.8086 19.3902 11.4988 18.882 12.1299 18.2783C12.5415 17.8667 12.9028 17.4682 13.2139 17.084C13.4196 16.8299 13.6078 16.5793 13.7852 16.3369L13.2461 15.9502C12.9725 15.725 12.6864 15.4861 12.3906 15.2314C12.0706 14.9572 11.7461 14.6553 11.417 14.3262C10.923 13.8139 10.4466 13.2189 9.98926 12.542C9.87144 12.3665 9.75942 12.185 9.65234 11.998C9.00851 11.7219 8.31612 11.582 7.57422 11.582ZM24.4805 11.582C23.8584 11.582 23.2725 11.678 22.7236 11.8701C22.1748 12.0531 21.6622 12.3094 21.1865 12.6387C20.711 12.9588 20.2716 13.3202 19.8691 13.7227C19.3753 14.1891 18.964 14.642 18.6348 15.0811C18.4747 15.296 18.337 15.4773 18.2227 15.626L18.1875 15.6689L18.665 16.0254C18.6642 16.0261 18.663 16.0266 18.6621 16.0273C18.9639 16.2469 19.261 16.4806 19.5537 16.7275C19.8464 16.9745 20.1716 17.2897 20.5283 17.6738C21.1706 18.3161 21.7607 19.084 22.3008 19.9756C22.9655 20.2697 23.6916 20.4189 24.4805 20.4189C25.2853 20.4189 26.0172 20.2224 26.6758 19.8291C27.3435 19.4266 27.8742 18.8913 28.2676 18.2236C28.6701 17.5467 28.8711 16.796 28.8711 15.9727C28.8711 15.1677 28.67 14.4359 28.2676 13.7773C27.8742 13.1096 27.3436 12.5789 26.6758 12.1855C26.0172 11.7831 25.2854 11.5821 24.4805 11.582Z" fill="black"/>
</svg>
