<svg width="114" height="114" viewBox="0 0 114 114" fill="none" xmlns="http://www.w3.org/2000/svg">
<mask id="path-1-outside-1_285_753" maskUnits="userSpaceOnUse" x="0" y="0" width="114" height="115" fill="black">
<rect fill="white" width="114" height="115"/>
<path d="M57.0908 4C60.5451 4.00005 63.7726 4.63657 66.7725 5.90918C69.8026 7.2122 72.4549 9.00078 74.7275 11.2734C77 13.5764 78.7723 16.2433 80.0449 19.2734C80.997 21.5098 81.601 23.8594 81.8574 26.3223L71.6357 29.0918C71.6357 26.3646 70.969 23.8791 69.6357 21.6367C68.3328 19.4248 66.5752 17.6516 64.3633 16.3184C62.1816 15.0155 59.7572 14.3643 57.0908 14.3643C54.3636 14.3643 51.8781 15.0154 49.6357 16.3184C47.4238 17.6516 45.6516 19.4248 44.3184 21.6367C43.0153 23.8791 42.3633 26.3645 42.3633 29.0918C42.3633 32.0916 43.0457 34.8337 44.4092 37.3184C45.7728 39.8032 47.4541 42.0917 49.4541 44.1826C50.8177 45.5462 52.1365 46.7432 53.4092 47.7734C54.2703 48.4705 55.1117 49.1175 55.9316 49.7168L57.085 48.1748C57.087 48.1773 57.0888 48.1801 57.0908 48.1826C57.8179 47.1828 58.5902 46.198 59.4082 45.2285C60.2264 44.2588 61.2722 43.1828 62.5449 42.001C65.0904 39.4555 68.2268 37.1524 71.9541 35.0918C75.7117 33.0312 80.0909 32.001 85.0908 32.001C89.6966 32.001 93.8783 33.122 97.6357 35.3643C101.424 37.5763 104.424 40.5765 106.636 44.3643C108.878 48.1218 110 52.3041 110 56.9102C110 60.395 109.348 63.6679 108.045 66.7285C106.772 69.7587 104.999 72.4255 102.727 74.7285C100.454 77.0011 97.8026 78.7888 94.7725 80.0918C91.7726 81.3645 88.5452 82.0009 85.0908 82.001C83.9777 82.001 82.8952 81.9466 81.8428 81.8418C81.9451 82.8944 82 83.9775 82 85.0918C81.9999 89.6976 80.878 93.8793 78.6357 97.6367C76.4237 101.424 73.4235 104.425 69.6357 106.637C65.8783 108.879 61.6966 110.001 57.0908 110.001C53.6061 110.001 50.333 109.349 47.2725 108.046C44.2423 106.773 41.5754 105 39.2725 102.728C36.9999 100.455 35.2122 97.8035 33.9092 94.7734C32.9398 92.4884 32.3414 90.0712 32.1104 87.5225L42.3955 83.9541C42.3745 84.3288 42.3633 84.7083 42.3633 85.0918C42.3633 87.7583 43.0154 90.1825 44.3184 92.3643C45.6516 94.5761 47.4239 96.3338 49.6357 97.6367C51.8781 98.97 54.3636 99.6367 57.0908 99.6367C59.7573 99.6367 62.1816 98.97 64.3633 97.6367C66.5752 96.3338 68.3328 94.5761 69.6357 92.3643C70.9689 90.1826 71.6357 87.7582 71.6357 85.0918C71.6357 83.0313 71.3179 81.0915 70.6816 79.2734C70.0756 77.4553 69.2266 75.7583 68.1357 74.1826C67.0752 72.6069 65.8782 71.1516 64.5449 69.8184C62.9997 68.1822 61.4993 66.8183 60.0449 65.7275C59.2894 65.1649 58.6582 64.6864 58.1504 64.2939L56.8398 66.1211C56.0931 67.0286 55.2989 67.9741 54.4541 68.9551C53.545 70.0156 52.545 71.0917 51.4541 72.1826C49.7571 73.819 47.7873 75.395 45.5449 76.9102C43.3329 78.3949 40.8482 79.6221 38.0908 80.5918C35.3637 81.5312 32.3634 82.0009 29.0908 82.001C24.4242 82.001 20.1961 80.8801 16.4082 78.6377C12.6204 76.3953 9.60568 73.3796 7.36328 69.5918C5.12088 65.8039 4.00001 61.5768 4 56.9102C4 53.4558 4.63558 50.2284 5.9082 47.2285C7.21123 44.1982 8.99973 41.5462 11.2725 39.2734C13.5754 37.0008 16.2423 35.2278 19.2725 33.9551C22.333 32.6521 25.6061 32.001 29.0908 32.001C30.1365 32.001 31.1544 32.0505 32.1445 32.1494C32.0483 31.1581 32 30.1389 32 29.0918C32 24.4251 33.1209 20.1971 35.3633 16.4092C37.6057 12.6215 40.6214 9.60661 44.4092 7.36426C48.197 5.12198 52.4243 4 57.0908 4ZM29.0908 42.3643C26.3636 42.3643 23.8782 43.0309 21.6357 44.3643C19.4236 45.6673 17.6507 47.4256 16.3174 49.6377C15.0145 51.8194 14.3633 54.2437 14.3633 56.9102C14.3633 59.6372 15.0145 62.122 16.3174 64.3643C17.6507 66.5763 19.4237 68.3493 21.6357 69.6826C23.8782 70.9856 26.3635 71.6377 29.0908 71.6377C32.0906 71.6376 34.8327 70.9553 37.3174 69.5918C39.8022 68.2282 42.0907 66.5468 44.1816 64.5469C45.5453 63.1832 46.7422 61.8645 47.7725 60.5918C48.4527 59.7515 49.0838 58.9291 49.6709 58.1279L47.8867 56.8467C46.977 56.0982 46.0285 55.302 45.0449 54.4551C43.9845 53.5461 42.9091 52.5458 41.8184 51.4551C40.182 49.7581 38.6059 47.7883 37.0908 45.5459C36.6984 44.9612 36.3242 44.3571 35.9678 43.7344C33.8377 42.8213 31.5454 42.3643 29.0908 42.3643ZM85.0908 42.3643C83.0303 42.3643 81.0906 42.683 79.2725 43.3193C77.4544 43.9253 75.7573 44.7735 74.1816 45.8643C72.6059 46.9248 71.1507 48.1218 69.8174 49.4551C68.1811 51.0005 66.8175 52.5006 65.7266 53.9551C65.1428 54.739 64.6494 55.3887 64.249 55.9062L65.8262 57.085C65.8236 57.0871 65.821 57.0896 65.8184 57.0918C66.8181 57.8189 67.8031 58.5913 68.7725 59.4092C69.7421 60.2273 70.8183 61.2733 72 62.5459C74.1297 64.6756 76.0886 67.2198 77.8789 70.1768C80.0781 71.1488 82.4814 71.6377 85.0908 71.6377C87.7573 71.6376 90.1816 70.9856 92.3633 69.6826C94.5753 68.3493 96.3327 66.5763 97.6357 64.3643C98.969 62.1219 99.6357 59.6373 99.6357 56.9102C99.6357 54.2436 98.969 51.8195 97.6357 49.6377C96.3327 47.4256 94.5754 45.6673 92.3633 44.3643C90.1816 43.031 87.7573 42.3643 85.0908 42.3643Z"/>
</mask>
<path d="M57.0908 4C60.5451 4.00005 63.7726 4.63657 66.7725 5.90918C69.8026 7.2122 72.4549 9.00078 74.7275 11.2734C77 13.5764 78.7723 16.2433 80.0449 19.2734C80.997 21.5098 81.601 23.8594 81.8574 26.3223L71.6357 29.0918C71.6357 26.3646 70.969 23.8791 69.6357 21.6367C68.3328 19.4248 66.5752 17.6516 64.3633 16.3184C62.1816 15.0155 59.7572 14.3643 57.0908 14.3643C54.3636 14.3643 51.8781 15.0154 49.6357 16.3184C47.4238 17.6516 45.6516 19.4248 44.3184 21.6367C43.0153 23.8791 42.3633 26.3645 42.3633 29.0918C42.3633 32.0916 43.0457 34.8337 44.4092 37.3184C45.7728 39.8032 47.4541 42.0917 49.4541 44.1826C50.8177 45.5462 52.1365 46.7432 53.4092 47.7734C54.2703 48.4705 55.1117 49.1175 55.9316 49.7168L57.085 48.1748C57.087 48.1773 57.0888 48.1801 57.0908 48.1826C57.8179 47.1828 58.5902 46.198 59.4082 45.2285C60.2264 44.2588 61.2722 43.1828 62.5449 42.001C65.0904 39.4555 68.2268 37.1524 71.9541 35.0918C75.7117 33.0312 80.0909 32.001 85.0908 32.001C89.6966 32.001 93.8783 33.122 97.6357 35.3643C101.424 37.5763 104.424 40.5765 106.636 44.3643C108.878 48.1218 110 52.3041 110 56.9102C110 60.395 109.348 63.6679 108.045 66.7285C106.772 69.7587 104.999 72.4255 102.727 74.7285C100.454 77.0011 97.8026 78.7888 94.7725 80.0918C91.7726 81.3645 88.5452 82.0009 85.0908 82.001C83.9777 82.001 82.8952 81.9466 81.8428 81.8418C81.9451 82.8944 82 83.9775 82 85.0918C81.9999 89.6976 80.878 93.8793 78.6357 97.6367C76.4237 101.424 73.4235 104.425 69.6357 106.637C65.8783 108.879 61.6966 110.001 57.0908 110.001C53.6061 110.001 50.333 109.349 47.2725 108.046C44.2423 106.773 41.5754 105 39.2725 102.728C36.9999 100.455 35.2122 97.8035 33.9092 94.7734C32.9398 92.4884 32.3414 90.0712 32.1104 87.5225L42.3955 83.9541C42.3745 84.3288 42.3633 84.7083 42.3633 85.0918C42.3633 87.7583 43.0154 90.1825 44.3184 92.3643C45.6516 94.5761 47.4239 96.3338 49.6357 97.6367C51.8781 98.97 54.3636 99.6367 57.0908 99.6367C59.7573 99.6367 62.1816 98.97 64.3633 97.6367C66.5752 96.3338 68.3328 94.5761 69.6357 92.3643C70.9689 90.1826 71.6357 87.7582 71.6357 85.0918C71.6357 83.0313 71.3179 81.0915 70.6816 79.2734C70.0756 77.4553 69.2266 75.7583 68.1357 74.1826C67.0752 72.6069 65.8782 71.1516 64.5449 69.8184C62.9997 68.1822 61.4993 66.8183 60.0449 65.7275C59.2894 65.1649 58.6582 64.6864 58.1504 64.2939L56.8398 66.1211C56.0931 67.0286 55.2989 67.9741 54.4541 68.9551C53.545 70.0156 52.545 71.0917 51.4541 72.1826C49.7571 73.819 47.7873 75.395 45.5449 76.9102C43.3329 78.3949 40.8482 79.6221 38.0908 80.5918C35.3637 81.5312 32.3634 82.0009 29.0908 82.001C24.4242 82.001 20.1961 80.8801 16.4082 78.6377C12.6204 76.3953 9.60568 73.3796 7.36328 69.5918C5.12088 65.8039 4.00001 61.5768 4 56.9102C4 53.4558 4.63558 50.2284 5.9082 47.2285C7.21123 44.1982 8.99973 41.5462 11.2725 39.2734C13.5754 37.0008 16.2423 35.2278 19.2725 33.9551C22.333 32.6521 25.6061 32.001 29.0908 32.001C30.1365 32.001 31.1544 32.0505 32.1445 32.1494C32.0483 31.1581 32 30.1389 32 29.0918C32 24.4251 33.1209 20.1971 35.3633 16.4092C37.6057 12.6215 40.6214 9.60661 44.4092 7.36426C48.197 5.12198 52.4243 4 57.0908 4ZM29.0908 42.3643C26.3636 42.3643 23.8782 43.0309 21.6357 44.3643C19.4236 45.6673 17.6507 47.4256 16.3174 49.6377C15.0145 51.8194 14.3633 54.2437 14.3633 56.9102C14.3633 59.6372 15.0145 62.122 16.3174 64.3643C17.6507 66.5763 19.4237 68.3493 21.6357 69.6826C23.8782 70.9856 26.3635 71.6377 29.0908 71.6377C32.0906 71.6376 34.8327 70.9553 37.3174 69.5918C39.8022 68.2282 42.0907 66.5468 44.1816 64.5469C45.5453 63.1832 46.7422 61.8645 47.7725 60.5918C48.4527 59.7515 49.0838 58.9291 49.6709 58.1279L47.8867 56.8467C46.977 56.0982 46.0285 55.302 45.0449 54.4551C43.9845 53.5461 42.9091 52.5458 41.8184 51.4551C40.182 49.7581 38.6059 47.7883 37.0908 45.5459C36.6984 44.9612 36.3242 44.3571 35.9678 43.7344C33.8377 42.8213 31.5454 42.3643 29.0908 42.3643ZM85.0908 42.3643C83.0303 42.3643 81.0906 42.683 79.2725 43.3193C77.4544 43.9253 75.7573 44.7735 74.1816 45.8643C72.6059 46.9248 71.1507 48.1218 69.8174 49.4551C68.1811 51.0005 66.8175 52.5006 65.7266 53.9551C65.1428 54.739 64.6494 55.3887 64.249 55.9062L65.8262 57.085C65.8236 57.0871 65.821 57.0896 65.8184 57.0918C66.8181 57.8189 67.8031 58.5913 68.7725 59.4092C69.7421 60.2273 70.8183 61.2733 72 62.5459C74.1297 64.6756 76.0886 67.2198 77.8789 70.1768C80.0781 71.1488 82.4814 71.6377 85.0908 71.6377C87.7573 71.6376 90.1816 70.9856 92.3633 69.6826C94.5753 68.3493 96.3327 66.5763 97.6357 64.3643C98.969 62.1219 99.6357 59.6373 99.6357 56.9102C99.6357 54.2436 98.969 51.8195 97.6357 49.6377C96.3327 47.4256 94.5754 45.6673 92.3633 44.3643C90.1816 43.031 87.7573 42.3643 85.0908 42.3643Z" fill="black"/>
<path d="M57.0908 4L57.0909 0H57.0908V4ZM66.7725 5.90918L68.3526 2.23452L68.3436 2.23066L68.3346 2.22683L66.7725 5.90918ZM74.7275 11.2734L77.5747 8.46388L77.5654 8.45441L77.556 8.44501L74.7275 11.2734ZM80.0449 19.2734L76.357 20.8224L76.3608 20.8313L76.3646 20.8403L80.0449 19.2734ZM81.8574 26.3223L82.9035 30.1831L86.1883 29.293L85.8359 25.9081L81.8574 26.3223ZM71.6357 29.0918H67.6357V34.3198L72.6818 32.9526L71.6357 29.0918ZM69.6357 21.6367L66.1893 23.6669L66.1934 23.674L66.1976 23.681L69.6357 21.6367ZM64.3633 16.3184L66.4282 12.8926L66.4212 12.8883L66.4142 12.8841L64.3633 16.3184ZM57.0908 14.3643L57.0909 10.3643H57.0908V14.3643ZM49.6357 16.3184L47.6261 12.8598L47.5983 12.876L47.5708 12.8926L49.6357 16.3184ZM44.3184 21.6367L40.8926 19.5717L40.876 19.5993L40.8599 19.627L44.3184 21.6367ZM42.3633 29.0918H38.3633V29.0919L42.3633 29.0918ZM44.4092 37.3184L40.9025 39.2427L40.9025 39.2428L44.4092 37.3184ZM49.4541 44.1826L46.5635 46.9475L46.5943 46.9796L46.6257 47.0111L49.4541 44.1826ZM53.4092 47.7734L50.8924 50.8824L50.8924 50.8824L53.4092 47.7734ZM55.9316 49.7168L53.5714 52.9463L56.7654 55.2805L59.1348 52.1126L55.9316 49.7168ZM57.085 48.1748L60.1805 45.6415L56.9433 41.6858L53.8818 45.779L57.085 48.1748ZM57.0908 48.1826L53.995 50.7156L57.2771 54.7271L60.3257 50.5353L57.0908 48.1826ZM59.4082 45.2285L56.351 42.649L56.351 42.6491L59.4082 45.2285ZM62.5449 42.001L65.2667 44.9321L65.321 44.8818L65.3733 44.8294L62.5449 42.001ZM71.9541 35.0918L70.0308 31.5845L70.0188 31.5911L71.9541 35.0918ZM85.0908 32.001L85.0909 28.001H85.0908V32.001ZM97.6357 35.3643L95.586 38.7991L95.6022 38.8088L95.6185 38.8184L97.6357 35.3643ZM106.636 44.3643L103.182 46.3815L103.191 46.3978L103.201 46.4141L106.636 44.3643ZM110 56.9102L114 56.9102V56.9102H110ZM108.045 66.7285L104.365 65.1616L104.361 65.1706L104.357 65.1796L108.045 66.7285ZM102.727 74.7285L105.555 77.557L105.564 77.5476L105.574 77.5382L102.727 74.7285ZM94.7725 80.0918L96.3347 83.7741L96.3436 83.7703L96.3526 83.7665L94.7725 80.0918ZM85.0908 82.001V86.001H85.0909L85.0908 82.001ZM81.8428 81.8418L82.239 77.8615L77.39 77.3788L77.8615 82.2289L81.8428 81.8418ZM82 85.0918L86 85.0919V85.0918H82ZM78.6357 97.6367L75.2009 95.5869L75.1912 95.6032L75.1816 95.6195L78.6357 97.6367ZM69.6357 106.637L67.6185 103.183L67.6022 103.192L67.586 103.202L69.6357 106.637ZM57.0908 110.001V114.001H57.0909L57.0908 110.001ZM47.2725 108.046L48.8393 104.366L48.8304 104.362L48.8214 104.358L47.2725 108.046ZM39.2725 102.728L36.444 105.556L36.4534 105.565L36.4629 105.575L39.2725 102.728ZM33.9092 94.7734L30.2269 96.3356L30.2307 96.3446L30.2345 96.3536L33.9092 94.7734ZM32.1104 87.5225L30.7992 83.7434L27.8443 84.7686L28.1267 87.8836L32.1104 87.5225ZM42.3955 83.9541L46.3892 84.1779L46.7232 78.2187L41.0844 80.1751L42.3955 83.9541ZM42.3633 85.0918H38.3633V85.0919L42.3633 85.0918ZM44.3184 92.3643L40.8842 94.4152L40.8884 94.4222L40.8926 94.4292L44.3184 92.3643ZM49.6357 97.6367L51.68 94.1985L51.673 94.1944L51.666 94.1903L49.6357 97.6367ZM57.0908 99.6367V103.637H57.0909L57.0908 99.6367ZM64.3633 97.6367L62.3331 94.1902L62.3052 94.2067L62.2775 94.2236L64.3633 97.6367ZM69.6357 92.3643L66.2226 90.2785L66.2057 90.3061L66.1893 90.334L69.6357 92.3643ZM71.6357 85.0918L75.6357 85.0919V85.0918H71.6357ZM70.6816 79.2734L66.8869 80.5384L66.8963 80.5666L66.9062 80.5948L70.6816 79.2734ZM68.1357 74.1826L64.8174 76.4161L64.832 76.4379L64.847 76.4594L68.1357 74.1826ZM64.5449 69.8184L61.6369 72.5649L61.6761 72.6064L61.7165 72.6468L64.5449 69.8184ZM60.0449 65.7275L62.445 62.5275L62.434 62.5194L60.0449 65.7275ZM58.1504 64.2939L60.5965 61.1291L57.3163 58.5938L54.9 61.9626L58.1504 64.2939ZM56.8398 66.1211L59.9286 68.6627L60.0129 68.5602L60.0902 68.4525L56.8398 66.1211ZM54.4541 68.9551L51.423 66.345L51.4171 66.3519L54.4541 68.9551ZM51.4541 72.1826L54.2306 75.062L54.2568 75.0368L54.2825 75.011L51.4541 72.1826ZM45.5449 76.9102L47.7742 80.2314L47.7844 80.2245L45.5449 76.9102ZM38.0908 80.5918L39.3935 84.3737L39.4057 84.3695L39.4178 84.3653L38.0908 80.5918ZM29.0908 82.001V86.001H29.0909L29.0908 82.001ZM16.4082 78.6377L14.3705 82.0797L14.3705 82.0798L16.4082 78.6377ZM7.36328 69.5918L3.92122 71.6295H3.92122L7.36328 69.5918ZM4 56.9102H0V56.9102L4 56.9102ZM5.9082 47.2285L2.23353 45.6484L2.22967 45.6574L2.22585 45.6664L5.9082 47.2285ZM11.2725 39.2734L8.46286 36.4263L8.45342 36.4356L8.44404 36.445L11.2725 39.2734ZM19.2725 33.9551L20.8214 37.643L20.8303 37.6392L20.8393 37.6354L19.2725 33.9551ZM29.0908 32.001L29.0909 28.001H29.0908V32.001ZM32.1445 32.1494L31.7467 36.1296L36.5966 36.6143L36.1258 31.7631L32.1445 32.1494ZM32 29.0918H28V29.0918L32 29.0918ZM35.3633 16.4092L31.9213 14.3714L31.9212 14.3715L35.3633 16.4092ZM44.4092 7.36426L42.3715 3.92216L42.3715 3.9222L44.4092 7.36426ZM29.0908 42.3643L29.0909 38.3643H29.0908V42.3643ZM21.6357 44.3643L23.6659 47.8108L23.673 47.8066L23.68 47.8024L21.6357 44.3643ZM16.3174 49.6377L12.8916 47.5728L12.8873 47.5798L12.8831 47.5868L16.3174 49.6377ZM14.3633 56.9102H10.3633V56.9102L14.3633 56.9102ZM16.3174 64.3643L12.8588 66.3738L12.875 66.4016L12.8916 66.4291L16.3174 64.3643ZM21.6357 69.6826L19.5708 73.1084L19.5983 73.125L19.6261 73.1411L21.6357 69.6826ZM29.0908 71.6377V75.6377H29.0909L29.0908 71.6377ZM37.3174 69.5918L39.2417 73.0985L39.2418 73.0985L37.3174 69.5918ZM44.1816 64.5469L46.9465 67.4375L46.9786 67.4067L47.0101 67.3753L44.1816 64.5469ZM47.7725 60.5918L50.8814 63.1086L50.8814 63.1086L47.7725 60.5918ZM49.6709 58.1279L52.8974 60.4922L55.2845 57.2346L52.0041 54.8789L49.6709 58.1279ZM47.8867 56.8467L45.3453 59.9356L45.4468 60.0191L45.5535 60.0957L47.8867 56.8467ZM45.0449 54.4551L47.655 51.424L47.6481 51.4181L45.0449 54.4551ZM41.8184 51.4551L38.939 54.2316L38.9642 54.2578L38.99 54.2835L41.8184 51.4551ZM37.0908 45.5459L33.7696 47.7752L33.7765 47.7853L37.0908 45.5459ZM35.9678 43.7344L39.4393 41.7473L38.7743 40.5854L37.5437 40.0579L35.9678 43.7344ZM85.0908 42.3643L85.0909 38.3643H85.0908V42.3643ZM79.2725 43.3193L80.5374 47.1141L80.5657 47.1046L80.5938 47.0948L79.2725 43.3193ZM74.1816 45.8643L76.4151 49.1826L76.4369 49.168L76.4584 49.1531L74.1816 45.8643ZM69.8174 49.4551L72.5639 52.3631L72.6054 52.3239L72.6458 52.2835L69.8174 49.4551ZM65.7266 53.9551L62.5266 51.555L62.5184 51.566L65.7266 53.9551ZM64.249 55.9062L61.0852 53.4587L58.5967 56.6755L61.8544 59.1103L64.249 55.9062ZM65.8262 57.085L68.3595 60.1805L72.3167 56.9421L68.2208 53.8809L65.8262 57.085ZM65.8184 57.0918L63.2707 54.008L59.2944 57.293L63.4656 60.3267L65.8184 57.0918ZM68.7725 59.4092L71.352 56.352L71.3519 56.352L68.7725 59.4092ZM72 62.5459L69.0688 65.2677L69.1192 65.322L69.1715 65.3743L72 62.5459ZM77.8789 70.1768L74.4572 72.2484L75.1096 73.326L76.2618 73.8353L77.8789 70.1768ZM85.0908 71.6377V75.6377H85.0909L85.0908 71.6377ZM92.3633 69.6826L94.4142 73.1168L94.4212 73.1126L94.4282 73.1084L92.3633 69.6826ZM97.6357 64.3643L94.1976 62.32L94.1934 62.3271L94.1892 62.3341L97.6357 64.3643ZM99.6357 56.9102L103.636 56.9102V56.9102H99.6357ZM97.6357 49.6377L94.1892 51.6678L94.2057 51.6958L94.2226 51.7234L97.6357 49.6377ZM92.3633 44.3643L90.2775 47.7774L90.3052 47.7943L90.3331 47.8108L92.3633 44.3643ZM57.0908 4L57.0908 8C60.041 8.00004 62.7338 8.54092 65.2103 9.59152L66.7725 5.90918L68.3346 2.22683C64.8115 0.732222 61.0493 5.36442e-05 57.0909 0L57.0908 4ZM66.7725 5.90918L65.1923 9.58384C67.7689 10.6918 69.9945 12.1973 71.8991 14.1019L74.7275 11.2734L77.556 8.44501C74.9152 5.80428 71.8364 3.7326 68.3526 2.23452L66.7725 5.90918ZM74.7275 11.2734L71.8804 14.083C73.7888 16.017 75.2784 18.2542 76.357 20.8224L80.0449 19.2734L83.7328 17.7245C82.2662 14.2325 80.2113 11.1357 77.5747 8.46388L74.7275 11.2734ZM80.0449 19.2734L76.3646 20.8403C77.1573 22.7023 77.663 24.6627 77.8789 26.7365L81.8574 26.3223L85.8359 25.9081C85.539 23.0561 84.8367 20.3173 83.7253 17.7066L80.0449 19.2734ZM81.8574 26.3223L80.8114 22.4615L70.5897 25.231L71.6357 29.0918L72.6818 32.9526L82.9035 30.1831L81.8574 26.3223ZM71.6357 29.0918H75.6357C75.6357 25.6792 74.792 22.4821 73.0739 19.5925L69.6357 21.6367L66.1976 23.681C67.146 25.2761 67.6357 27.0499 67.6357 29.0918H71.6357ZM69.6357 21.6367L73.0822 19.6065C71.4399 16.8185 69.2062 14.567 66.4282 12.8926L64.3633 16.3184L62.2983 19.7441C63.9442 20.7362 65.2256 22.0311 66.1893 23.6669L69.6357 21.6367ZM64.3633 16.3184L66.4142 12.8841C63.581 11.1922 60.4419 10.3643 57.0909 10.3643L57.0908 14.3643L57.0907 18.3643C59.0726 18.3643 60.7822 18.8388 62.3124 19.7526L64.3633 16.3184ZM57.0908 14.3643V10.3643C53.6962 10.3643 50.5112 11.1834 47.6261 12.8598L49.6357 16.3184L51.6453 19.7769C53.245 18.8474 55.0311 18.3643 57.0908 18.3643V14.3643ZM49.6357 16.3184L47.5708 12.8926C44.8006 14.5623 42.5615 16.803 40.8926 19.5717L44.3184 21.6367L47.7441 23.7017C48.7417 22.0467 50.0471 20.7409 51.7007 19.7442L49.6357 16.3184ZM44.3184 21.6367L40.8599 19.627C39.1838 22.5114 38.3633 25.6961 38.3633 29.0918H42.3633H46.3633C46.3633 27.033 46.8469 25.2468 47.7769 23.6464L44.3184 21.6367ZM42.3633 29.0918L38.3633 29.0919C38.3634 32.7243 39.1966 36.1341 40.9025 39.2427L44.4092 37.3184L47.9159 35.394C46.8947 33.5332 46.3633 31.4589 46.3633 29.0917L42.3633 29.0918ZM44.4092 37.3184L40.9025 39.2428C42.4371 42.0391 44.327 44.6093 46.5635 46.9475L49.4541 44.1826L52.3447 41.4177C50.5813 39.5742 49.1085 37.5672 47.9158 35.394L44.4092 37.3184ZM49.4541 44.1826L46.6257 47.0111C48.0718 48.4572 49.4944 49.7507 50.8924 50.8824L53.4092 47.7734L55.926 44.6645C54.7786 43.7356 53.5636 42.6352 52.2825 41.3542L49.4541 44.1826ZM53.4092 47.7734L50.8924 50.8824C51.803 51.6196 52.6966 52.3069 53.5714 52.9463L55.9316 49.7168L58.2918 46.4873C57.5267 45.9282 56.7375 45.3214 55.9259 44.6644L53.4092 47.7734ZM55.9316 49.7168L59.1348 52.1126L60.2881 50.5706L57.085 48.1748L53.8818 45.779L52.7285 47.321L55.9316 49.7168ZM57.085 48.1748L53.9894 50.7081C53.9627 50.6755 53.9397 50.6463 53.9207 50.6218C53.9019 50.5973 53.886 50.5763 53.8741 50.5601C53.8622 50.5441 53.8527 50.5311 53.8472 50.5234C53.8443 50.5195 53.8421 50.5164 53.8407 50.5145C53.8395 50.5128 53.8385 50.5114 53.8388 50.5119C53.8388 50.5119 53.8392 50.5123 53.8396 50.5129C53.84 50.5135 53.8406 50.5144 53.8414 50.5155C53.843 50.5176 53.8455 50.5211 53.8485 50.5253C53.8546 50.5336 53.8645 50.5473 53.8768 50.5639C53.8892 50.5807 53.9055 50.6024 53.9249 50.6274C53.9443 50.6525 53.9678 50.6823 53.995 50.7156L57.0908 48.1826L60.1866 45.6497C60.2133 45.6823 60.2363 45.7115 60.2552 45.7359C60.2741 45.7603 60.2899 45.7814 60.3019 45.7975C60.3137 45.8135 60.3231 45.8264 60.3287 45.8341C60.3315 45.838 60.3338 45.8411 60.3351 45.843C60.3363 45.8446 60.3373 45.846 60.337 45.8456C60.3369 45.8455 60.3366 45.8451 60.3362 45.8445C60.3358 45.8439 60.3351 45.843 60.3343 45.8419C60.3328 45.8397 60.3302 45.8362 60.3272 45.832C60.3211 45.8236 60.3112 45.81 60.2988 45.7933C60.2864 45.7765 60.2701 45.7548 60.2507 45.7297C60.2313 45.7046 60.2077 45.6748 60.1805 45.6415L57.085 48.1748ZM57.0908 48.1826L60.3257 50.5353C60.9954 49.6146 61.7082 48.7054 62.4654 47.808L59.4082 45.2285L56.351 42.6491C55.4722 43.6906 54.6405 44.7511 53.8559 45.8299L57.0908 48.1826ZM59.4082 45.2285L62.4654 47.808C63.1488 46.998 64.0727 46.0409 65.2667 44.9321L62.5449 42.001L59.8231 39.0698C58.4717 40.3247 57.3039 41.5197 56.351 42.649L59.4082 45.2285ZM62.5449 42.001L65.3733 44.8294C67.6109 42.5919 70.4317 40.504 73.8894 38.5924L71.9541 35.0918L70.0188 31.5911C66.0219 33.8008 62.5699 36.3191 59.7165 39.1726L62.5449 42.001ZM71.9541 35.0918L73.8774 38.5991C76.9539 36.912 80.6504 36.001 85.0908 36.001V32.001V28.001C79.5313 28.001 74.4694 29.1505 70.0308 31.5845L71.9541 35.0918ZM85.0908 32.001L85.0908 36.001C89.0146 36.001 92.4816 36.9466 95.586 38.7991L97.6357 35.3643L99.6855 31.9294C95.2751 29.2974 90.3786 28.0011 85.0909 28.001L85.0908 32.001ZM97.6357 35.3643L95.6185 38.8184C98.8116 40.6831 101.317 43.1884 103.182 46.3815L106.636 44.3643L110.09 42.347C107.53 37.9647 104.035 34.4695 99.6529 31.9101L97.6357 35.3643ZM106.636 44.3643L103.201 46.4141C105.054 49.519 106 52.9866 106 56.9102H110H114C114 51.6216 112.703 46.7247 110.071 42.3144L106.636 44.3643ZM110 56.9102L106 56.9101C106 59.8822 105.447 62.6196 104.365 65.1616L108.045 66.7285L111.725 68.2954C113.249 64.7162 114 60.9077 114 56.9102L110 56.9102ZM108.045 66.7285L104.357 65.1796C103.279 67.7473 101.788 69.9845 99.8795 71.9189L102.727 74.7285L105.574 77.5382C108.21 74.8666 110.266 71.7701 111.733 68.2775L108.045 66.7285ZM102.727 74.7285L99.8982 71.9C97.9937 73.8044 95.769 75.3091 93.1923 76.4171L94.7725 80.0918L96.3526 83.7665C99.8362 82.2685 102.914 80.1977 105.555 77.557L102.727 74.7285ZM94.7725 80.0918L93.2103 76.4095C90.7337 77.4601 88.0411 78.0009 85.0908 78.001L85.0908 82.001L85.0909 86.001C89.0493 86.0009 92.8114 85.2688 96.3347 83.7741L94.7725 80.0918ZM85.0908 82.001V78.001C84.1083 78.001 83.158 77.9529 82.239 77.8615L81.8428 81.8418L81.4465 85.8221C82.6323 85.9402 83.8472 86.001 85.0908 86.001V82.001ZM81.8428 81.8418L77.8615 82.2289C77.9516 83.1553 78 84.1092 78 85.0918H82H86C86 83.8459 85.9386 82.6336 85.824 81.4547L81.8428 81.8418ZM82 85.0918L78 85.0917C77.9999 89.015 77.0538 92.482 75.2009 95.5869L78.6357 97.6367L82.0706 99.6865C84.7023 95.2766 85.9999 90.3803 86 85.0919L82 85.0918ZM78.6357 97.6367L75.1816 95.6195C73.3169 98.8126 70.8116 101.318 67.6185 103.183L69.6357 106.637L71.653 110.091C76.0353 107.531 79.5305 104.036 82.0898 99.6539L78.6357 97.6367ZM69.6357 106.637L67.586 103.202C64.4811 105.055 61.014 106.001 57.0908 106.001L57.0908 110.001L57.0909 114.001C62.3793 114.001 67.2756 112.703 71.6855 110.072L69.6357 106.637ZM57.0908 110.001V106.001C54.1189 106.001 51.3813 105.448 48.8393 104.366L47.2725 108.046L45.7056 111.726C49.2847 113.25 53.0933 114.001 57.0908 114.001V110.001ZM47.2725 108.046L48.8214 104.358C46.2537 103.28 44.0165 101.789 42.0821 99.8804L39.2725 102.728L36.4629 105.575C39.1343 108.211 42.2309 110.267 45.7235 111.734L47.2725 108.046ZM39.2725 102.728L42.1009 99.8991C40.1966 97.9948 38.6918 95.7699 37.5838 93.1933L33.9092 94.7734L30.2345 96.3536C31.7325 99.8371 33.8033 102.915 36.444 105.556L39.2725 102.728ZM33.9092 94.7734L37.5915 93.2112C36.7901 91.3222 36.2889 89.3115 36.094 87.1613L32.1104 87.5225L28.1267 87.8836C28.3939 90.8308 29.0895 93.6547 30.2269 96.3356L33.9092 94.7734ZM32.1104 87.5225L33.4215 91.3015L43.7066 87.7331L42.3955 83.9541L41.0844 80.1751L30.7992 83.7434L32.1104 87.5225ZM42.3955 83.9541L38.4018 83.7303C38.3768 84.176 38.3633 84.6302 38.3633 85.0918H42.3633H46.3633C46.3633 84.7863 46.3722 84.4815 46.3892 84.1779L42.3955 83.9541ZM42.3633 85.0918L38.3633 85.0919C38.3634 88.4439 39.1926 91.5828 40.8842 94.4152L44.3184 92.3643L47.7525 90.3133C46.8382 88.7823 46.3633 87.0727 46.3633 85.0917L42.3633 85.0918ZM44.3184 92.3643L40.8926 94.4292C42.5666 97.2064 44.817 99.4405 47.6055 101.083L49.6357 97.6367L51.666 94.1903C50.0309 93.227 48.7366 91.9457 47.7441 90.2993L44.3184 92.3643ZM49.6357 97.6367L47.5915 101.075C50.4811 102.793 53.6783 103.637 57.0908 103.637V99.6367V95.6367C55.049 95.6367 53.2751 95.147 51.68 94.1985L49.6357 97.6367ZM57.0908 99.6367L57.0909 103.637C60.4603 103.637 63.6117 102.784 66.4491 101.05L64.3633 97.6367L62.2775 94.2236C60.7514 95.1562 59.0543 95.6367 57.0907 95.6367L57.0908 99.6367ZM64.3633 97.6367L66.3935 101.083C69.19 99.4359 71.4349 97.1909 73.0822 94.3945L69.6357 92.3643L66.1893 90.334C65.2306 91.9614 63.9604 93.2316 62.3331 94.1902L64.3633 97.6367ZM69.6357 92.3643L73.0489 94.45C74.7827 91.6127 75.6357 88.4613 75.6357 85.0919L71.6357 85.0918L67.6357 85.0917C67.6357 87.0552 67.1552 88.7524 66.2226 90.2785L69.6357 92.3643ZM71.6357 85.0918H75.6357C75.6357 82.6134 75.2523 80.2241 74.4571 77.9521L70.6816 79.2734L66.9062 80.5948C67.3836 81.9589 67.6357 83.4492 67.6357 85.0918H71.6357ZM70.6816 79.2734L74.4764 78.0085C73.7503 75.8302 72.7308 73.7926 71.4245 71.9058L68.1357 74.1826L64.847 76.4594C65.7224 77.7241 66.4009 79.0804 66.8869 80.5384L70.6816 79.2734ZM68.1357 74.1826L71.4541 71.9491C70.2512 70.1619 68.8905 68.5071 67.3734 66.99L64.5449 69.8184L61.7165 72.6468C62.8659 73.7962 63.8992 75.0519 64.8174 76.4161L68.1357 74.1826ZM64.5449 69.8184L67.4529 67.0718C65.7866 65.3076 64.118 63.7824 62.445 62.5276L60.0449 65.7275L57.6449 68.9275C58.8806 69.8543 60.2127 71.0569 61.6369 72.5649L64.5449 69.8184ZM60.0449 65.7275L62.434 62.5194C61.6929 61.9675 61.0813 61.5037 60.5965 61.1291L58.1504 64.2939L55.7042 67.4588C56.2351 67.8692 56.886 68.3624 57.6559 68.9357L60.0449 65.7275ZM58.1504 64.2939L54.9 61.9626L53.5895 63.7897L56.8398 66.1211L60.0902 68.4525L61.4007 66.6253L58.1504 64.2939ZM56.8398 66.1211L53.7511 63.5795C53.0225 64.465 52.2475 65.3876 51.423 66.345L54.4541 68.9551L57.4852 71.5652C58.3502 70.5606 59.1637 69.5922 59.9286 68.6627L56.8398 66.1211ZM54.4541 68.9551L51.4171 66.3519C50.5809 67.3275 49.6513 68.3286 48.6257 69.3542L51.4541 72.1826L54.2825 75.011C55.4387 73.8549 56.5092 72.7038 57.4911 71.5582L54.4541 68.9551ZM51.4541 72.1826L48.6776 69.3032C47.1689 70.758 45.3839 72.1914 43.3055 73.5958L45.5449 76.9102L47.7844 80.2245C50.1908 78.5986 52.3454 76.8799 54.2306 75.062L51.4541 72.1826ZM45.5449 76.9102L43.3156 73.589C41.4098 74.8682 39.2331 75.95 36.7638 76.8183L38.0908 80.5918L39.4178 84.3653C42.4633 83.2943 45.256 81.9216 47.7742 80.2313L45.5449 76.9102ZM38.0908 80.5918L36.7882 76.8099C34.5323 77.5869 31.9789 78.0009 29.0908 78.001L29.0908 82.001L29.0909 86.001C32.7479 86.0009 36.195 85.4754 39.3935 84.3737L38.0908 80.5918ZM29.0908 82.001V78.001C25.0959 78.001 21.5791 77.0505 18.4459 75.1956L16.4082 78.6377L14.3705 82.0798C18.8131 84.7098 23.7524 86.001 29.0908 86.001V82.001ZM16.4082 78.6377L18.4459 75.1956C15.2372 73.2961 12.7053 70.7636 10.8053 67.5541L7.36328 69.5918L3.92122 71.6295C6.50601 75.9957 10.0036 79.4945 14.3705 82.0797L16.4082 78.6377ZM7.36328 69.5918L10.8053 67.5541C8.95046 64.4209 8.00001 60.9049 8 56.9101L4 56.9102L0 56.9102C1.66893e-05 62.2487 1.29129 67.187 3.92122 71.6295L7.36328 69.5918ZM4 56.9102H8C8 53.9591 8.54021 51.2666 9.59056 48.7907L5.9082 47.2285L2.22585 45.6664C0.730953 49.1902 0 52.9524 0 56.9102H4ZM5.9082 47.2285L9.58288 48.8086C10.6908 46.232 12.1962 44.0065 14.1009 42.1019L11.2725 39.2734L8.44404 36.445C5.80325 39.0858 3.73163 42.1644 2.23353 45.6484L5.9082 47.2285ZM11.2725 39.2734L14.0821 42.1206C16.0165 40.2116 18.2537 38.7214 20.8214 37.643L19.2725 33.9551L17.7235 30.2672C14.2308 31.7341 11.1343 33.79 8.46286 36.4263L11.2725 39.2734ZM19.2725 33.9551L20.8393 37.6354C23.3806 36.5536 26.1181 36.001 29.0908 36.001V32.001V28.001C25.0941 28.001 21.2854 28.7507 17.7056 30.2747L19.2725 33.9551ZM29.0908 32.001L29.0908 36.001C30.0104 36.001 30.8954 36.0445 31.7467 36.1296L32.1445 32.1494L32.5423 28.1692C31.4135 28.0564 30.2627 28.001 29.0909 28.001L29.0908 32.001ZM32.1445 32.1494L36.1258 31.7631C36.0427 30.9059 36 30.0158 36 29.0917L32 29.0918L28 29.0918C28 30.262 28.054 31.4102 28.1632 32.5357L32.1445 32.1494ZM32 29.0918H36C36 25.0969 36.9505 21.58 38.8053 18.4469L35.3633 16.4092L31.9212 14.3715C29.2912 18.8141 28 23.7534 28 29.0918H32ZM35.3633 16.4092L38.8053 18.4469C40.7049 15.2383 43.2375 12.7063 46.4469 10.8063L44.4092 7.36426L42.3715 3.9222C38.0053 6.50696 34.5065 10.0047 31.9213 14.3714L35.3633 16.4092ZM44.4092 7.36426L46.4468 10.8064C49.5806 8.95124 53.0969 8 57.0908 8V4V0C51.7517 0 46.8134 1.29271 42.3715 3.92216L44.4092 7.36426ZM29.0908 42.3643V38.3643C25.6782 38.3643 22.4811 39.2079 19.5915 40.9261L21.6357 44.3643L23.68 47.8024C25.2752 46.854 27.0489 46.3643 29.0908 46.3643V42.3643ZM21.6357 44.3643L19.6056 40.9177C16.8167 42.5605 14.5657 44.7953 12.8916 47.5728L16.3174 49.6377L19.7432 51.7026C20.7357 50.0559 22.0305 48.7741 23.6659 47.8108L21.6357 44.3643ZM16.3174 49.6377L12.8831 47.5868C11.1913 50.42 10.3633 53.5589 10.3633 56.9102H14.3633H18.3633C18.3633 54.9284 18.8377 53.2189 19.7516 51.6885L16.3174 49.6377ZM14.3633 56.9102L10.3633 56.9102C10.3633 60.305 11.1827 63.489 12.8588 66.3738L16.3174 64.3643L19.7759 62.3547C18.8464 60.7549 18.3633 58.9694 18.3633 56.9101L14.3633 56.9102ZM16.3174 64.3643L12.8916 66.4291C14.561 69.1989 16.8012 71.439 19.5708 73.1084L21.6357 69.6826L23.7007 66.2568C22.0462 65.2596 20.7404 63.9538 19.7432 62.2994L16.3174 64.3643ZM21.6357 69.6826L19.6261 73.1411C22.5105 74.8172 25.6951 75.6377 29.0908 75.6377V71.6377V67.6377C27.032 67.6377 25.2459 67.1541 23.6454 66.2241L21.6357 69.6826ZM29.0908 71.6377L29.0909 75.6377C32.7233 75.6376 36.1332 74.8044 39.2417 73.0985L37.3174 69.5918L35.393 66.0851C33.5322 67.1062 31.4579 67.6376 29.0907 67.6377L29.0908 71.6377ZM37.3174 69.5918L39.2418 73.0985C42.0381 71.5639 44.6083 69.674 46.9465 67.4375L44.1816 64.5469L41.4168 61.6563C39.5732 63.4197 37.5663 64.8925 35.393 66.0851L37.3174 69.5918ZM44.1816 64.5469L47.0101 67.3753C48.4563 65.9291 49.7497 64.5066 50.8814 63.1086L47.7725 60.5918L44.6635 58.075C43.7346 59.2224 42.6343 60.4374 41.3532 61.7185L44.1816 64.5469ZM47.7725 60.5918L50.8814 63.1086C51.6035 62.2166 52.2738 61.3432 52.8974 60.4922L49.6709 58.1279L46.4444 55.7636C45.8939 56.5149 45.3018 57.2864 44.6635 58.075L47.7725 60.5918ZM49.6709 58.1279L52.0041 54.8789L50.2199 53.5976L47.8867 56.8467L45.5535 60.0957L47.3377 61.377L49.6709 58.1279ZM47.8867 56.8467L50.4281 53.7578C49.5398 53.0269 48.6143 52.25 47.655 51.424L45.0449 54.4551L42.4348 57.4862C43.4428 58.3541 44.4143 59.1696 45.3453 59.9356L47.8867 56.8467ZM45.0449 54.4551L47.6481 51.4181C46.6736 50.5827 45.6731 49.653 44.6468 48.6266L41.8184 51.4551L38.99 54.2835C40.145 55.4386 41.2954 56.5095 42.4417 57.4921L45.0449 54.4551ZM41.8184 51.4551L44.6977 48.6785C43.243 47.1699 41.8095 45.3849 40.4052 43.3065L37.0908 45.5459L33.7765 47.7853C35.4024 50.1917 37.1211 52.3464 38.939 54.2316L41.8184 51.4551ZM37.0908 45.5459L40.412 43.3166C40.0745 42.8138 39.7503 42.2907 39.4393 41.7473L35.9678 43.7344L32.4962 45.7214C32.8981 46.4236 33.3223 47.1087 33.7696 47.7752L37.0908 45.5459ZM35.9678 43.7344L37.5437 40.0579C34.8871 38.9191 32.0552 38.3643 29.0909 38.3643L29.0908 42.3643L29.0907 46.3643C31.0356 46.3643 32.7884 46.7235 34.3918 47.4108L35.9678 43.7344ZM85.0908 42.3643V38.3643C82.6111 38.3643 80.222 38.7491 77.9511 39.5439L79.2725 43.3193L80.5938 47.0948C81.9592 46.6169 83.4495 46.3643 85.0908 46.3643V42.3643ZM79.2725 43.3193L78.0075 39.5246C75.8305 40.2503 73.7926 41.2686 71.9049 42.5754L74.1816 45.8643L76.4584 49.1531C77.722 48.2783 79.0784 47.6004 80.5374 47.1141L79.2725 43.3193ZM74.1816 45.8643L71.9481 42.5459C70.1609 43.7488 68.5061 45.1095 66.989 46.6266L69.8174 49.4551L72.6458 52.2835C73.7952 51.1341 75.0509 50.1008 76.4151 49.1826L74.1816 45.8643ZM69.8174 49.4551L67.0709 46.547C65.3064 48.2135 63.7815 49.8819 62.5266 51.555L65.7266 53.9551L68.9265 56.3551C69.8534 55.1193 71.0558 53.7874 72.5639 52.3631L69.8174 49.4551ZM65.7266 53.9551L62.5184 51.566C61.9466 52.3338 61.4682 52.9637 61.0852 53.4587L64.249 55.9062L67.4128 58.3538C67.8306 57.8137 68.339 57.1441 68.9347 56.3441L65.7266 53.9551ZM64.249 55.9062L61.8544 59.1103L63.4316 60.289L65.8262 57.085L68.2208 53.8809L66.6436 52.7022L64.249 55.9062ZM65.8262 57.085L63.2929 53.9894C63.2677 54.01 63.2458 54.0284 63.2277 54.0439C63.2096 54.0593 63.1942 54.0727 63.1824 54.0832C63.1706 54.0936 63.161 54.1021 63.1549 54.1076C63.1491 54.1127 63.1444 54.117 63.1441 54.1173C63.1434 54.1179 63.1442 54.1172 63.1448 54.1166C63.1457 54.1159 63.1474 54.1143 63.1496 54.1123C63.1539 54.1085 63.1618 54.1014 63.1717 54.0926C63.1818 54.0838 63.1953 54.0719 63.2115 54.058C63.2277 54.044 63.2476 54.0271 63.2707 54.008L65.8184 57.0918L68.366 60.1756C68.3897 60.156 68.4103 60.1385 68.4272 60.124C68.444 60.1095 68.4582 60.0971 68.4689 60.0876C68.4795 60.0782 68.488 60.0706 68.493 60.0662C68.4955 60.0639 68.4976 60.0621 68.4987 60.061C68.4997 60.0601 68.5008 60.0591 68.5004 60.0595C68.5004 60.0595 68.5001 60.0598 68.4997 60.0601C68.4994 60.0604 68.4988 60.061 68.498 60.0616C68.4966 60.0629 68.4944 60.0649 68.4916 60.0674C68.4861 60.0723 68.4772 60.0803 68.466 60.0901C68.4548 60.0999 68.4401 60.1128 68.4227 60.1277C68.4052 60.1426 68.3839 60.1605 68.3595 60.1805L65.8262 57.085ZM65.8184 57.0918L63.4656 60.3267C64.3863 60.9963 65.2957 61.7093 66.193 62.4664L68.7725 59.4092L71.3519 56.352C70.3104 55.4732 69.2498 54.6415 68.1711 53.8569L65.8184 57.0918ZM68.7725 59.4092L66.1929 62.4663C67.0029 63.1498 67.9602 64.0738 69.0688 65.2677L72 62.5459L74.9312 59.8241C73.6763 58.4727 72.4813 57.3049 71.352 56.352L68.7725 59.4092ZM72 62.5459L69.1715 65.3743C71.0425 67.2453 72.8089 69.526 74.4572 72.2484L77.8789 70.1768L81.3006 68.1051C79.3683 64.9135 77.2169 62.1059 74.8285 59.7175L72 62.5459ZM77.8789 70.1768L76.2618 73.8353C79.0096 75.0498 81.969 75.6377 85.0908 75.6377V71.6377V67.6377C82.9938 67.6377 81.1466 67.2477 79.496 66.5182L77.8789 70.1768ZM85.0908 71.6377L85.0909 75.6377C88.443 75.6376 91.5818 74.8084 94.4142 73.1168L92.3633 69.6826L90.3123 66.2484C88.7813 67.1628 87.0717 67.6376 85.0907 67.6377L85.0908 71.6377ZM92.3633 69.6826L94.4282 73.1084C97.2062 71.4339 99.4399 69.1826 101.082 66.3944L97.6357 64.3643L94.1892 62.3341C93.2256 63.97 91.9444 65.2647 90.2984 66.2568L92.3633 69.6826ZM97.6357 64.3643L101.074 66.4085C102.792 63.5192 103.636 60.3229 103.636 56.9102L99.6357 56.9102L95.6357 56.9101C95.6357 58.9517 95.1461 60.7247 94.1976 62.32L97.6357 64.3643ZM99.6357 56.9102H103.636C103.636 53.5405 102.783 50.3893 101.049 47.552L97.6357 49.6377L94.2226 51.7234C95.1552 53.2497 95.6357 54.9466 95.6357 56.9102H99.6357ZM97.6357 49.6377L101.082 47.6075C99.4353 44.8115 97.1908 42.5655 94.3934 40.9177L92.3633 44.3643L90.3331 47.8108C91.96 48.7691 93.2302 50.0397 94.1892 51.6678L97.6357 49.6377ZM92.3633 44.3643L94.4491 40.9511C91.6117 39.2172 88.4603 38.3643 85.0909 38.3643L85.0908 42.3643L85.0907 46.3643C87.0543 46.3643 88.7514 46.8448 90.2775 47.7774L92.3633 44.3643Z" fill="white" mask="url(#path-1-outside-1_285_753)"/>
</svg>
